<svg version="1.1" xmlns="http://www.w3.org/2000/svg" viewBox="0 0 1840 900" width="1840" height="900">
  <!-- svg-source:excalidraw -->
  
  <defs>
    <style class="style-fonts">
      @font-face {
        font-family: "Virgil";
        src: url("https://unpkg.com/@excalidraw/excalidraw@undefined/dist/excalidraw-assets/Virgil.woff2");
      }
      @font-face {
        font-family: "Cascadia";
        src: url("https://unpkg.com/@excalidraw/excalidraw@undefined/dist/excalidraw-assets/Cascadia.woff2");
      }
      @font-face {
        font-family: "Assistant";
        src: url("https://unpkg.com/@excalidraw/excalidraw@undefined/dist/excalidraw-assets/Assistant-Regular.woff2");
      }
    </style>
    
  </defs>
  <rect x="0" y="0" width="1840" height="900" fill="#ffffff"></rect><g transform="translate(10 10) rotate(0 380 17.5)"><text x="0" y="0" font-family="Virgil, Segoe UI Emoji" font-size="28px" fill="#1e1e1e" text-anchor="start" style="white-space: pre;" direction="ltr" dominant-baseline="text-before-edge">Traffic event detection: how our system works</text></g><g transform="translate(10 52) rotate(0 550 10)"><text x="0" y="0" font-family="Virgil, Segoe UI Emoji" font-size="16px" fill="#495057" text-anchor="start" style="white-space: pre;" direction="ltr" dominant-baseline="text-before-edge">WIUT Hackathon 2026, CV track. Blue = learned, grey = rules / classical CV, yellow = data we made, green = outputs</text></g><g transform="translate(10 110) rotate(0 210 12.5)"><text x="0" y="0" font-family="Virgil, Segoe UI Emoji" font-size="20px" fill="#1e1e1e" text-anchor="start" style="white-space: pre;" direction="ltr" dominant-baseline="text-before-edge">Part A: events as [start, end, label]</text></g><g stroke-linecap="round" transform="translate(10 150) rotate(0 85 45)"><path d="M22.5 0 C58.57 -2.94, 90.8 -0.67, 147.5 0 C161.65 -1.07, 170.01 8.81, 170 22.5 C166.56 32.47, 169.56 45.53, 170 67.5 C166.94 86.03, 159.59 91.6, 147.5 90 C118.69 92.57, 85.97 86.61, 22.5 90 C8.92 87.67, -1 82.13, 0 67.5 C3.05 52.65, -3.25 37.84, 0 22.5 C2.92 8.19, 5.94 0.69, 22.5 0" stroke="none" stroke-width="0" fill="#fff3bf"></path><path d="M22.5 0 C55.62 0.5, 88.82 -1.09, 147.5 0 M22.5 0 C61.13 -0.6, 97.16 0.21, 147.5 0 M147.5 0 C161.43 -0.34, 169.4 8.82, 170 22.5 M147.5 0 C164.8 -2.03, 168.38 5.77, 170 22.5 M170 22.5 C171.01 39.1, 171.85 57.42, 170 67.5 M170 22.5 C170.32 31.4, 169.51 41.13, 170 67.5 M170 67.5 C168.85 80.97, 163.36 91.65, 147.5 90 M170 67.5 C168.76 84.16, 161.53 90.96, 147.5 90 M147.5 90 C109.57 91.84, 66.15 89.77, 22.5 90 M147.5 90 C119.96 88.47, 93.33 89.79, 22.5 90 M22.5 90 C5.69 90.57, 1.37 82.79, 0 67.5 M22.5 90 C6.97 88.47, 1.29 80.84, 0 67.5 M0 67.5 C-0.57 49.66, -0.78 34.05, 0 22.5 M0 67.5 C0.76 52.94, 0.86 38.13, 0 22.5 M0 22.5 C-1.83 8.78, 6.07 -2, 22.5 0 M0 22.5 C0.67 8.07, 8.65 -1.86, 22.5 0" stroke="#1e1e1e" stroke-width="2" fill="none"></path></g><g transform="translate(18 174.83999999999997) rotate(0 77 20)"><text x="77" y="0" font-family="Virgil, Segoe UI Emoji" font-size="16px" fill="#1e1e1e" text-anchor="middle" style="white-space: pre;" direction="ltr" dominant-baseline="text-before-edge">4K video</text><text x="77" y="20" font-family="Virgil, Segoe UI Emoji" font-size="16px" fill="#1e1e1e" text-anchor="middle" style="white-space: pre;" direction="ltr" dominant-baseline="text-before-edge">29.97 fps</text></g><g stroke-linecap="round" transform="translate(220 150) rotate(0 85 45)"><path d="M22.5 0 C53.66 -0.81, 86.68 -3.57, 147.5 0 C161.78 2.01, 171.14 10.04, 170 22.5 C170.54 38.61, 172.78 51.58, 170 67.5 C171.47 84.02, 158.92 92.14, 147.5 90 C122.36 93.66, 90.82 93.82, 22.5 90 C3.96 90.84, -0.48 80.09, 0 67.5 C-2.82 55.5, 1.05 49.17, 0 22.5 C-3.09 9.81, 8.14 0.03, 22.5 0" stroke="none" stroke-width="0" fill="#e9ecef"></path><path d="M22.5 0 C59.04 0.2, 97.31 0.16, 147.5 0 M22.5 0 C65.17 0.9, 108.93 -0.33, 147.5 0 M147.5 0 C161.72 -0.81, 171.24 6.38, 170 22.5 M147.5 0 C164.79 -1.6, 171.11 6.01, 170 22.5 M170 22.5 C167.94 38.76, 169.6 51.99, 170 67.5 M170 22.5 C169.4 39.29, 170.54 53.73, 170 67.5 M170 67.5 C169.48 83.5, 161.91 88.18, 147.5 90 M170 67.5 C169.46 81.42, 160.98 91.9, 147.5 90 M147.5 90 C106.93 90.44, 64.94 90.03, 22.5 90 M147.5 90 C120.09 91.14, 92.19 90.83, 22.5 90 M22.5 90 C5.5 89.23, 0.76 82.46, 0 67.5 M22.5 90 C9.46 91.41, -2.08 80.73, 0 67.5 M0 67.5 C-0.18 55.85, 0.76 39.95, 0 22.5 M0 67.5 C0.71 58.12, 0.18 48.7, 0 22.5 M0 22.5 C-0.21 7.57, 8.9 -1.43, 22.5 0 M0 22.5 C0.89 6.92, 6.32 1.78, 22.5 0" stroke="#1e1e1e" stroke-width="2" fill="none"></path></g><g transform="translate(228 164.76) rotate(0 77 30)"><text x="77" y="0" font-family="Virgil, Segoe UI Emoji" font-size="16px" fill="#1e1e1e" text-anchor="middle" style="white-space: pre;" direction="ltr" dominant-baseline="text-before-edge">Frame sampler</text><text x="77" y="20" font-family="Virgil, Segoe UI Emoji" font-size="16px" fill="#1e1e1e" text-anchor="middle" style="white-space: pre;" direction="ltr" dominant-baseline="text-before-edge">every 3rd frame</text><text x="77" y="40" font-family="Virgil, Segoe UI Emoji" font-size="16px" fill="#1e1e1e" text-anchor="middle" style="white-space: pre;" direction="ltr" dominant-baseline="text-before-edge">(10 per second)</text></g><g stroke-linecap="round" transform="translate(430 150) rotate(0 95 45)"><path d="M22.5 0 C69.48 -0.49, 123.97 0.64, 167.5 0 C183.65 2.33, 188.13 8.31, 190 22.5 C187.61 32.57, 189.27 45.1, 190 67.5 C188.49 85.12, 179.15 86.83, 167.5 90 C132.86 92.45, 95.37 91.66, 22.5 90 C5.07 90.45, 2.26 81.03, 0 67.5 C-2.13 51, -1.71 42.23, 0 22.5 C-3.3 9.44, 7.66 -0.29, 22.5 0" stroke="none" stroke-width="0" fill="#a5d8ff"></path><path d="M22.5 0 C53.53 2.39, 85.63 1.02, 167.5 0 M22.5 0 C79.57 -0.39, 134.59 -0.38, 167.5 0 M167.5 0 C184.15 -1.46, 190.2 8.28, 190 22.5 M167.5 0 C184 1.21, 191.7 8.18, 190 22.5 M190 22.5 C189.57 38.38, 188.5 51.7, 190 67.5 M190 22.5 C189.21 36.68, 190.26 52.5, 190 67.5 M190 67.5 C189.27 83.95, 184.23 88.34, 167.5 90 M190 67.5 C191.07 82.25, 182.91 88.97, 167.5 90 M167.5 90 C112.92 92.39, 62.01 90.19, 22.5 90 M167.5 90 C121.71 89.01, 76.05 90.06, 22.5 90 M22.5 90 C7.63 88.92, 1.8 83.29, 0 67.5 M22.5 90 C5.94 89.8, 2.15 84.42, 0 67.5 M0 67.5 C1.37 51.27, -1.12 33.74, 0 22.5 M0 67.5 C1.18 54.54, -0.7 40.88, 0 22.5 M0 22.5 C-1.02 7.38, 7.81 0.66, 22.5 0 M0 22.5 C-1.82 9.13, 6.4 -1.99, 22.5 0" stroke="#1e1e1e" stroke-width="2" fill="none"></path></g><g transform="translate(438 164.76) rotate(0 87 30)"><text x="87" y="0" font-family="Virgil, Segoe UI Emoji" font-size="16px" fill="#1e1e1e" text-anchor="middle" style="white-space: pre;" direction="ltr" dominant-baseline="text-before-edge">YOLO26m @1280</text><text x="87" y="20" font-family="Virgil, Segoe UI Emoji" font-size="16px" fill="#1e1e1e" text-anchor="middle" style="white-space: pre;" direction="ltr" dominant-baseline="text-before-edge">COCO-pretrained</text><text x="87" y="40" font-family="Virgil, Segoe UI Emoji" font-size="16px" fill="#1e1e1e" text-anchor="middle" style="white-space: pre;" direction="ltr" dominant-baseline="text-before-edge">person, car, bus...</text></g><g stroke-linecap="round" transform="translate(660 150) rotate(0 90 45)"><path d="M22.5 0 C66.28 -1.62, 101.93 -2.87, 157.5 0 C174.51 -0.41, 176.47 9.37, 180 22.5 C178.68 32.06, 180.7 44.66, 180 67.5 C178.74 81.96, 169.33 88.22, 157.5 90 C115.2 88.47, 76.04 89.67, 22.5 90 C4.02 91.41, -1.47 82.94, 0 67.5 C-2.13 59.45, -1.32 46.12, 0 22.5 C-1.83 8.93, 9.91 2.45, 22.5 0" stroke="none" stroke-width="0" fill="#e9ecef"></path><path d="M22.5 0 C50.95 -2.77, 82.04 -0.32, 157.5 0 M22.5 0 C58.68 0.85, 93.33 1.05, 157.5 0 M157.5 0 C173.84 0.85, 178.63 9.26, 180 22.5 M157.5 0 C170.78 -0.52, 178.93 5.76, 180 22.5 M180 22.5 C181.17 35.25, 178.58 51.68, 180 67.5 M180 22.5 C178.94 36.61, 178.83 50.93, 180 67.5 M180 67.5 C181.59 81.12, 172.39 88.84, 157.5 90 M180 67.5 C178.34 84.18, 171.69 92.03, 157.5 90 M157.5 90 C128.85 89.57, 98.3 88.62, 22.5 90 M157.5 90 C113.79 89.64, 68.36 89.41, 22.5 90 M22.5 90 C8.04 89.52, 1.26 80.75, 0 67.5 M22.5 90 C8.62 91.05, 1.45 84.28, 0 67.5 M0 67.5 C1.89 56.58, -0.71 43.43, 0 22.5 M0 67.5 C-0.51 49.22, 0.15 31.88, 0 22.5 M0 22.5 C-1.51 9.45, 5.8 0.74, 22.5 0 M0 22.5 C-0.72 5.47, 6.79 -1.14, 22.5 0" stroke="#1e1e1e" stroke-width="2" fill="none"></path></g><g transform="translate(668 174.83999999999997) rotate(0 82 20)"><text x="82" y="0" font-family="Virgil, Segoe UI Emoji" font-size="16px" fill="#1e1e1e" text-anchor="middle" style="white-space: pre;" direction="ltr" dominant-baseline="text-before-edge">ByteTrack (tuned)</text><text x="82" y="20" font-family="Virgil, Segoe UI Emoji" font-size="16px" fill="#1e1e1e" text-anchor="middle" style="white-space: pre;" direction="ltr" dominant-baseline="text-before-edge">track IDs</text></g><g stroke-linecap="round" transform="translate(880 150) rotate(0 95 45)"><path d="M22.5 0 C70.73 -2.18, 111.72 -0.06, 167.5 0 C182.77 2.96, 189.07 7.82, 190 22.5 C189.98 36.66, 191.11 58.47, 190 67.5 C189.45 84.26, 180.41 88.4, 167.5 90 C122.18 94.74, 72.95 90.95, 22.5 90 C8.97 90.84, -2.31 81.94, 0 67.5 C3.94 56.36, -3.11 44.67, 0 22.5 C-3.47 4.57, 5.09 0.69, 22.5 0" stroke="none" stroke-width="0" fill="#e9ecef"></path><path d="M22.5 0 C63.66 -1.21, 105.75 -1.87, 167.5 0 M22.5 0 C58.11 -0.64, 94.89 0.02, 167.5 0 M167.5 0 C183.05 0.68, 190.04 9.22, 190 22.5 M167.5 0 C183.94 -2.22, 190.28 5.35, 190 22.5 M190 22.5 C192.1 38.38, 191.72 55.97, 190 67.5 M190 22.5 C190.87 33.9, 190.14 47.01, 190 67.5 M190 67.5 C188.64 80.81, 180.95 91.32, 167.5 90 M190 67.5 C188.52 81.18, 183.18 92.29, 167.5 90 M167.5 90 C137.55 90.49, 106.23 90, 22.5 90 M167.5 90 C136.42 89.96, 106.49 89.69, 22.5 90 M22.5 90 C8.32 91.88, 1.98 80.67, 0 67.5 M22.5 90 C7.45 91.36, 1.49 84.07, 0 67.5 M0 67.5 C0.73 53.61, -1.57 39.9, 0 22.5 M0 67.5 C-0.51 52.09, -0.7 36.85, 0 22.5 M0 22.5 C-1.09 6.63, 6.93 -1.4, 22.5 0 M0 22.5 C0.18 6.95, 6.78 -1.84, 22.5 0" stroke="#1e1e1e" stroke-width="2" fill="none"></path></g><g transform="translate(888 164.76) rotate(0 87 30)"><text x="87" y="0" font-family="Virgil, Segoe UI Emoji" font-size="16px" fill="#1e1e1e" text-anchor="middle" style="white-space: pre;" direction="ltr" dominant-baseline="text-before-edge">Tracks + motion</text><text x="87" y="20" font-family="Virgil, Segoe UI Emoji" font-size="16px" fill="#1e1e1e" text-anchor="middle" style="white-space: pre;" direction="ltr" dominant-baseline="text-before-edge">ground point, speed,</text><text x="87" y="40" font-family="Virgil, Segoe UI Emoji" font-size="16px" fill="#1e1e1e" text-anchor="middle" style="white-space: pre;" direction="ltr" dominant-baseline="text-before-edge">class vote</text></g><g stroke-linecap="round" transform="translate(1110 130) rotate(0 130 105)"><path d="M32 0 C88.39 2.73, 141 5.46, 228 0 C251.85 -0.87, 257.17 11.91, 260 32 C262.43 74.66, 259.6 121.66, 260 178 C258.74 196.55, 250.72 209.9, 228 210 C169.13 207.86, 116.05 207.9, 32 210 C9.01 208.7, -0.58 199.49, 0 178 C3.3 145.43, 3.32 115.83, 0 32 C-1.67 8.5, 12.58 -1.35, 32 0" stroke="none" stroke-width="0" fill="#e9ecef"></path><path d="M32 0 C90.46 -2, 148.42 0.24, 228 0 M32 0 C71.71 0.63, 111.56 0.6, 228 0 M228 0 C251.01 1.7, 261.67 10.05, 260 32 M228 0 C248.08 -1.6, 259.39 11.39, 260 32 M260 32 C260.09 79.63, 260.64 130.14, 260 178 M260 32 C259.64 82.06, 260.07 133.27, 260 178 M260 178 C258.57 198.92, 250.08 209.1, 228 210 M260 178 C261.35 199.68, 248.87 210.12, 228 210 M228 210 C150.35 207.58, 73.79 208.86, 32 210 M228 210 C149.45 208.5, 71.8 209.08, 32 210 M32 210 C11.88 208.6, 0.12 200.23, 0 178 M32 210 C12.11 209.81, -1.19 197.11, 0 178 M0 178 C0.45 144.04, -0.94 114.81, 0 32 M0 178 C0.85 134.27, 0.13 91, 0 32 M0 32 C-0.28 10.8, 10.83 0.53, 32 0 M0 32 C-2.2 10.68, 12.24 -1.1, 32 0" stroke="#1e1e1e" stroke-width="2" fill="none"></path></g><g transform="translate(1118 149.95000000000002) rotate(0 122 84.37500000000001)"><text x="122" y="0" font-family="Virgil, Segoe UI Emoji" font-size="15px" fill="#1e1e1e" text-anchor="middle" style="white-space: pre;" direction="ltr" dominant-baseline="text-before-edge">Event layer v2</text><text x="122" y="18.75" font-family="Virgil, Segoe UI Emoji" font-size="15px" fill="#1e1e1e" text-anchor="middle" style="white-space: pre;" direction="ltr" dominant-baseline="text-before-edge">(one module per class)</text><text x="122" y="37.5" font-family="Virgil, Segoe UI Emoji" font-size="15px" fill="#1e1e1e" text-anchor="middle" style="white-space: pre;" direction="ltr" dominant-baseline="text-before-edge"></text><text x="122" y="56.25" font-family="Virgil, Segoe UI Emoji" font-size="15px" fill="#1e1e1e" text-anchor="middle" style="white-space: pre;" direction="ltr" dominant-baseline="text-before-edge">jaywalking</text><text x="122" y="75" font-family="Virgil, Segoe UI Emoji" font-size="15px" fill="#1e1e1e" text-anchor="middle" style="white-space: pre;" direction="ltr" dominant-baseline="text-before-edge">stopped_vehicle</text><text x="122" y="93.75" font-family="Virgil, Segoe UI Emoji" font-size="15px" fill="#1e1e1e" text-anchor="middle" style="white-space: pre;" direction="ltr" dominant-baseline="text-before-edge">failure_to_yield</text><text x="122" y="112.5" font-family="Virgil, Segoe UI Emoji" font-size="15px" fill="#1e1e1e" text-anchor="middle" style="white-space: pre;" direction="ltr" dominant-baseline="text-before-edge">congestion, stop_line</text><text x="122" y="131.25" font-family="Virgil, Segoe UI Emoji" font-size="15px" fill="#1e1e1e" text-anchor="middle" style="white-space: pre;" direction="ltr" dominant-baseline="text-before-edge">solid_line_crossing</text><text x="122" y="150" font-family="Virgil, Segoe UI Emoji" font-size="15px" fill="#1e1e1e" text-anchor="middle" style="white-space: pre;" direction="ltr" dominant-baseline="text-before-edge">illegal_turn</text></g><g stroke-linecap="round" transform="translate(1410 150) rotate(0 100 45)"><path d="M22.5 0 C64.14 -0.27, 108.94 1.64, 177.5 0 C194.27 -0.23, 197.09 6.07, 200 22.5 C197.57 36.5, 199.01 51.17, 200 67.5 C201.85 82.92, 190.24 91.39, 177.5 90 C133.61 92.78, 95.94 93.9, 22.5 90 C9.69 89.45, 1.72 79.83, 0 67.5 C-2.42 51.55, 0.13 35.24, 0 22.5 C1.85 4.49, 7.13 -1.41, 22.5 0" stroke="none" stroke-width="0" fill="#e9ecef"></path><path d="M22.5 0 C68.02 -0.27, 111.2 -0.49, 177.5 0 M22.5 0 C69.66 -0.55, 117.64 -0.67, 177.5 0 M177.5 0 C191.87 -0.46, 201.69 6.41, 200 22.5 M177.5 0 C193.13 -0.35, 199.58 7.19, 200 22.5 M200 22.5 C200.82 38.19, 200.86 54.45, 200 67.5 M200 22.5 C200.8 38.99, 199.24 53.89, 200 67.5 M200 67.5 C201.13 83.63, 191.38 88.41, 177.5 90 M200 67.5 C200.24 83.11, 192.13 91.85, 177.5 90 M177.5 90 C144.6 88.94, 110.61 87.89, 22.5 90 M177.5 90 C144.04 89.55, 109.82 90.42, 22.5 90 M22.5 90 C6.59 89.59, -1.56 82.8, 0 67.5 M22.5 90 C7.83 91.29, -2.17 84.11, 0 67.5 M0 67.5 C-0.03 56.92, -1.8 47.33, 0 22.5 M0 67.5 C-0.77 55.95, -0.87 46.61, 0 22.5 M0 22.5 C0.46 9.38, 7.13 -0.58, 22.5 0 M0 22.5 C-1.42 8.07, 7.9 0.71, 22.5 0" stroke="#1e1e1e" stroke-width="2" fill="none"></path></g><g transform="translate(1418 164.76) rotate(0 92 30)"><text x="92" y="0" font-family="Virgil, Segoe UI Emoji" font-size="16px" fill="#1e1e1e" text-anchor="middle" style="white-space: pre;" direction="ltr" dominant-baseline="text-before-edge">Segment clean-up</text><text x="92" y="20" font-family="Virgil, Segoe UI Emoji" font-size="16px" fill="#1e1e1e" text-anchor="middle" style="white-space: pre;" direction="ltr" dominant-baseline="text-before-edge">k-of-n confirm, gap</text><text x="92" y="40" font-family="Virgil, Segoe UI Emoji" font-size="16px" fill="#1e1e1e" text-anchor="middle" style="white-space: pre;" direction="ltr" dominant-baseline="text-before-edge">bridging, merge, clip</text></g><g stroke-linecap="round" transform="translate(1650 150) rotate(0 90 45)"><path d="M22.5 0 C66.55 -4.31, 106.08 -5.68, 157.5 0 C172.79 -0.84, 182.1 8.56, 180 22.5 C178.86 30.72, 181.56 49.17, 180 67.5 C176.52 82.45, 170.75 87.13, 157.5 90 C127.33 88.64, 96.21 89.49, 22.5 90 C7.27 91.27, 2.48 84.48, 0 67.5 C1.88 58.85, 1.93 46.83, 0 22.5 C-1.55 7.24, 9.06 0.21, 22.5 0" stroke="none" stroke-width="0" fill="#b2f2bb"></path><path d="M22.5 0 C47.84 0.56, 75.83 1.85, 157.5 0 M22.5 0 C73.94 -0.3, 123.02 -0.48, 157.5 0 M157.5 0 C172.65 0.03, 181.53 9.26, 180 22.5 M157.5 0 C172.56 0.68, 181.19 5.58, 180 22.5 M180 22.5 C178.89 38.84, 180.94 56.88, 180 67.5 M180 22.5 C181.19 37.47, 180.64 50.3, 180 67.5 M180 67.5 C180.85 83.87, 171.51 91.87, 157.5 90 M180 67.5 C178.37 84.12, 173.81 89, 157.5 90 M157.5 90 C125.04 88.76, 92.29 87.3, 22.5 90 M157.5 90 C116.2 88.57, 73.73 88, 22.5 90 M22.5 90 C6.99 90.89, -1.1 83.75, 0 67.5 M22.5 90 C5.68 87.74, -2.13 84.2, 0 67.5 M0 67.5 C-1.8 56.88, 0.74 41.3, 0 22.5 M0 67.5 C0.46 55, 0.08 41.85, 0 22.5 M0 22.5 C-1.88 8.38, 9.24 0.34, 22.5 0 M0 22.5 C-0.78 7.86, 7.24 -0.16, 22.5 0" stroke="#1e1e1e" stroke-width="2" fill="none"></path></g><g transform="translate(1658 174.83999999999997) rotate(0 82 20)"><text x="82" y="0" font-family="Virgil, Segoe UI Emoji" font-size="16px" fill="#1e1e1e" text-anchor="middle" style="white-space: pre;" direction="ltr" dominant-baseline="text-before-edge">[start, end, label]</text><text x="82" y="20" font-family="Virgil, Segoe UI Emoji" font-size="16px" fill="#1e1e1e" text-anchor="middle" style="white-space: pre;" direction="ltr" dominant-baseline="text-before-edge">per video</text></g><g stroke-linecap="round"><g transform="translate(180 195) rotate(0 20 0)"><path d="M-0.07 0.28 C6.64 0.34, 33.86 0.46, 40.45 0.38 M-0.77 -0.05 C5.9 -0.15, 33.37 -0.45, 40.25 -0.4" stroke="#495057" stroke-width="2" fill="none"></path></g><g transform="translate(180 195) rotate(0 20 0)"><path d="M21.48 6.5 C28.24 5.04, 34.68 0.96, 40.25 -0.4 M21.48 6.5 C26.28 5.06, 31.41 2.6, 40.25 -0.4" stroke="#495057" stroke-width="2" fill="none"></path></g><g transform="translate(180 195) rotate(0 20 0)"><path d="M21.44 -7.18 C28.22 -4.08, 34.67 -3.6, 40.25 -0.4 M21.44 -7.18 C26.28 -5.1, 31.42 -4.04, 40.25 -0.4" stroke="#495057" stroke-width="2" fill="none"></path></g></g><mask></mask><g stroke-linecap="round"><g transform="translate(390 195) rotate(0 20 0)"><path d="M-0.48 0.55 C6.16 0.58, 33.19 0.46, 40.01 0.37 M0.27 0.35 C6.83 0.22, 32.91 -0.45, 39.58 -0.4" stroke="#495057" stroke-width="2" fill="none"></path></g><g transform="translate(390 195) rotate(0 20 0)"><path d="M20.87 6.66 C27.9 4.47, 33.63 2.91, 39.58 -0.4 M20.87 6.66 C26.2 4.42, 32 2.08, 39.58 -0.4" stroke="#495057" stroke-width="2" fill="none"></path></g><g transform="translate(390 195) rotate(0 20 0)"><path d="M20.71 -7.02 C27.81 -4.78, 33.6 -1.92, 39.58 -0.4 M20.71 -7.02 C26.03 -5.15, 31.87 -3.38, 39.58 -0.4" stroke="#495057" stroke-width="2" fill="none"></path></g></g><mask></mask><g stroke-linecap="round"><g transform="translate(620 195) rotate(0 20 0)"><path d="M-0.47 0.26 C6.29 0.14, 33.38 -0.39, 40.16 -0.45 M0.29 -0.08 C7.03 -0.16, 33.2 -0.07, 39.8 0.02" stroke="#495057" stroke-width="2" fill="none"></path></g><g transform="translate(620 195) rotate(0 20 0)"><path d="M20.96 6.72 C25.7 5.56, 28.69 4.07, 39.8 0.02 M20.96 6.72 C26.04 5.19, 32.07 3.34, 39.8 0.02" stroke="#495057" stroke-width="2" fill="none"></path></g><g transform="translate(620 195) rotate(0 20 0)"><path d="M21.06 -6.96 C25.81 -5.01, 28.77 -3.4, 39.8 0.02 M21.06 -6.96 C26.07 -4.63, 32.06 -2.61, 39.8 0.02" stroke="#495057" stroke-width="2" fill="none"></path></g></g><mask></mask><g stroke-linecap="round"><g transform="translate(840 195) rotate(0 20 0)"><path d="M-0.35 0.2 C6.25 0.15, 33.32 0.21, 40.02 0.25 M0.47 -0.18 C6.96 -0.16, 33.11 -0.55, 39.59 -0.58" stroke="#495057" stroke-width="2" fill="none"></path></g><g transform="translate(840 195) rotate(0 20 0)"><path d="M20.87 6.46 C28.25 3.89, 35.41 0.85, 39.59 -0.58 M20.87 6.46 C27.61 4.03, 35.46 1.46, 39.59 -0.58" stroke="#495057" stroke-width="2" fill="none"></path></g><g transform="translate(840 195) rotate(0 20 0)"><path d="M20.73 -7.22 C28.22 -4.63, 35.44 -2.51, 39.59 -0.58 M20.73 -7.22 C27.46 -4.45, 35.36 -1.82, 39.59 -0.58" stroke="#495057" stroke-width="2" fill="none"></path></g></g><mask></mask><g stroke-linecap="round"><g transform="translate(1070 195) rotate(0 20 20)"><path d="M1.02 0.3 C7.5 6.61, 32.79 32.09, 39.13 38.9 M0.09 -0.58 C6.93 6.35, 34.49 33.19, 41.39 39.85" stroke="#495057" stroke-width="2" fill="none"></path></g><g transform="translate(1070 195) rotate(0 20 20)"><path d="M15.58 28.28 C24.44 30.32, 30.35 33.95, 41.39 39.85 M15.58 28.28 C25.69 33.45, 36.3 36.39, 41.39 39.85" stroke="#495057" stroke-width="2" fill="none"></path></g><g transform="translate(1070 195) rotate(0 20 20)"><path d="M29.06 14.4 C33.73 20.99, 35.33 29.06, 41.39 39.85 M29.06 14.4 C33.96 25.08, 39.26 33.49, 41.39 39.85" stroke="#495057" stroke-width="2" fill="none"></path></g></g><mask></mask><g stroke-linecap="round"><g transform="translate(1370 235) rotate(0 20 -20)"><path d="M-0.18 -0.28 C6.48 -7.15, 33.28 -33.24, 40.07 -40.06 M-1.73 -1.47 C4.76 -7.63, 32.18 -32.05, 39.16 -38.56" stroke="#495057" stroke-width="2" fill="none"></path></g><g transform="translate(1370 235) rotate(0 20 -20)"><path d="M26 -13.52 C29.42 -21.22, 33.9 -28.2, 39.16 -38.56 M26 -13.52 C28.66 -18.04, 30.68 -24.4, 39.16 -38.56" stroke="#495057" stroke-width="2" fill="none"></path></g><g transform="translate(1370 235) rotate(0 20 -20)"><path d="M12.99 -27.83 C20.62 -31.04, 29.17 -33.53, 39.16 -38.56 M12.99 -27.83 C18.31 -29.55, 22.94 -33.04, 39.16 -38.56" stroke="#495057" stroke-width="2" fill="none"></path></g></g><mask></mask><g stroke-linecap="round"><g transform="translate(1610 195) rotate(0 20 0)"><path d="M-0.04 -0.49 C6.54 -0.39, 33.1 0.15, 39.69 0.28 M-0.73 0.45 C6.02 0.41, 33.89 -0.36, 40.76 -0.54" stroke="#495057" stroke-width="2" fill="none"></path></g><g transform="translate(1610 195) rotate(0 20 0)"><path d="M22.16 6.8 C27.44 3.82, 34.97 1.02, 40.76 -0.54 M22.16 6.8 C28.53 3.93, 35.39 1.64, 40.76 -0.54" stroke="#495057" stroke-width="2" fill="none"></path></g><g transform="translate(1610 195) rotate(0 20 0)"><path d="M21.79 -6.87 C27.15 -5.34, 34.81 -3.63, 40.76 -0.54 M21.79 -6.87 C28.25 -4.96, 35.25 -2.47, 40.76 -0.54" stroke="#495057" stroke-width="2" fill="none"></path></g></g><mask></mask><g stroke-linecap="round" transform="translate(220 300) rotate(0 85 40)"><path d="M20 0 C61.76 -0.85, 100.44 1.74, 150 0 C162.24 1.27, 172.78 7.35, 170 20 C166.73 29.84, 170.81 37.43, 170 60 C168.75 74.26, 163.08 82.87, 150 80 C122.39 79.95, 87.78 82.09, 20 80 C8.15 81.59, 2.95 76.89, 0 60 C-2.79 47.17, -2.98 31.56, 0 20 C2.39 3.99, 7.43 -2.63, 20 0" stroke="none" stroke-width="0" fill="#e9ecef"></path><path d="M20 0 C69.11 -0.5, 113.71 -0.3, 150 0 M20 0 C66.94 0.62, 114.31 -0.61, 150 0 M150 0 C164.82 0.7, 168.68 7.86, 170 20 M150 0 C162.11 -1.78, 171.28 5.1, 170 20 M170 20 C167.98 31.65, 170.73 44.69, 170 60 M170 20 C170.21 30.88, 169.7 41.88, 170 60 M170 60 C168.12 74.72, 164.13 80.38, 150 80 M170 60 C171.19 72.64, 165.14 80.47, 150 80 M150 80 C106.89 78.5, 61.2 78.39, 20 80 M150 80 C120.35 80.06, 90.73 81.87, 20 80 M20 80 C8.57 79.94, 1.42 71.58, 0 60 M20 80 C5.65 80.32, 1.72 75.55, 0 60 M0 60 C1.39 49.16, 1.52 41.63, 0 20 M0 60 C1.15 47.53, 0.02 35.15, 0 20 M0 20 C-1.86 6.52, 5.04 -0.05, 20 0 M0 20 C-2.1 5.82, 6.29 2.03, 20 0" stroke="#1e1e1e" stroke-width="2" fill="none"></path></g><g transform="translate(228 329.92) rotate(0 77 10)"><text x="77" y="0" font-family="Virgil, Segoe UI Emoji" font-size="16px" fill="#1e1e1e" text-anchor="middle" style="white-space: pre;" direction="ltr" dominant-baseline="text-before-edge">First frame</text></g><g stroke-linecap="round" transform="translate(430 300) rotate(0 95 40)"><path d="M20 0 C68.76 -4.72, 116.85 -3.84, 170 0 C180.54 1.33, 190.74 3.81, 190 20 C189.66 31.25, 193.26 48.52, 190 60 C193.32 76.59, 180.01 77.55, 170 80 C130.7 76.5, 91.07 79.86, 20 80 C8.59 81.49, 0.31 72.27, 0 60 C3.52 45.76, -0.51 31.45, 0 20 C-2.77 9.27, 3.35 3.51, 20 0" stroke="none" stroke-width="0" fill="#e9ecef"></path><path d="M20 0 C57.59 1.96, 97.3 -0.01, 170 0 M20 0 C59.07 1.05, 98.91 0.15, 170 0 M170 0 C184.76 -1.49, 189.61 6.34, 190 20 M170 0 C181.45 2.08, 191.14 7.11, 190 20 M190 20 C189.42 27.53, 190.17 37.54, 190 60 M190 20 C190.49 35.13, 189.57 51.76, 190 60 M190 60 C190.08 73.85, 184.55 81.63, 170 80 M190 60 C188.77 72.09, 182.21 80.31, 170 80 M170 80 C130.18 80.76, 93.52 78.74, 20 80 M170 80 C119 78.17, 69.1 78.27, 20 80 M20 80 C6.75 79.77, -1.86 74.48, 0 60 M20 80 C6.52 79.75, -1.01 72.69, 0 60 M0 60 C0.64 48.56, 0.25 33.83, 0 20 M0 60 C-0.28 46.13, -0.13 32.15, 0 20 M0 20 C-1.82 5.57, 7.58 0.72, 20 0 M0 20 C0.79 5.05, 5.45 1.84, 20 0" stroke="#1e1e1e" stroke-width="2" fill="none"></path></g><g transform="translate(438 319.84000000000003) rotate(0 87 20)"><text x="87" y="0" font-family="Virgil, Segoe UI Emoji" font-size="16px" fill="#1e1e1e" text-anchor="middle" style="white-space: pre;" direction="ltr" dominant-baseline="text-before-edge">SIFT + RANSAC</text><text x="87" y="20" font-family="Virgil, Segoe UI Emoji" font-size="16px" fill="#1e1e1e" text-anchor="middle" style="white-space: pre;" direction="ltr" dominant-baseline="text-before-edge">homography</text></g><g stroke-linecap="round" transform="translate(660 280) rotate(0 110 60)"><path d="M30 0 C83.41 -0.75, 137.12 2.31, 190 0 C210.8 1.16, 218.83 11.99, 220 30 C215.99 49.94, 216.05 63.09, 220 90 C220.78 110.82, 213.36 117.16, 190 120 C158.35 120.69, 120.27 122.66, 30 120 C12.57 118.06, 3.42 109.28, 0 90 C0.86 75.65, -1.12 61.24, 0 30 C-2.71 10.61, 7.54 0.34, 30 0" stroke="none" stroke-width="0" fill="#fff3bf"></path><path d="M30 0 C91.39 -0.2, 149.74 -1.63, 190 0 M30 0 C83.7 1.12, 135.44 1.86, 190 0 M190 0 C211.47 -0.01, 218.66 8.87, 220 30 M190 0 C208.42 -0.79, 219.26 8.18, 220 30 M220 30 C220.94 49.71, 218.41 72.14, 220 90 M220 30 C219.8 48.25, 219.62 65.53, 220 90 M220 90 C220.46 109.81, 211.91 118.67, 190 120 M220 90 C218.84 108.87, 208.77 119.62, 190 120 M190 120 C141.95 121.25, 91.42 120.77, 30 120 M190 120 C134.9 121.53, 80.84 120.57, 30 120 M30 120 C11.35 120.18, 0.97 111.3, 0 90 M30 120 C10.37 118.73, 0.24 109.02, 0 90 M0 90 C0.8 67.84, -0.69 44.98, 0 30 M0 90 C-0.66 73.26, -0.33 54.64, 0 30 M0 30 C1.09 9.31, 11.03 0.14, 30 0 M0 30 C0.19 11.61, 11.45 -2.03, 30 0" stroke="#1e1e1e" stroke-width="2" fill="none"></path></g><g transform="translate(668 304.72) rotate(0 102 35)"><text x="102" y="0" font-family="Virgil, Segoe UI Emoji" font-size="14px" fill="#1e1e1e" text-anchor="middle" style="white-space: pre;" direction="ltr" dominant-baseline="text-before-edge">Our map of the junction</text><text x="102" y="17.5" font-family="Virgil, Segoe UI Emoji" font-size="14px" fill="#1e1e1e" text-anchor="middle" style="white-space: pre;" direction="ltr" dominant-baseline="text-before-edge">crossings, lanes + directions,</text><text x="102" y="35" font-family="Virgil, Segoe UI Emoji" font-size="14px" fill="#1e1e1e" text-anchor="middle" style="white-space: pre;" direction="ltr" dominant-baseline="text-before-edge">stop line, dividers,</text><text x="102" y="52.5" font-family="Virgil, Segoe UI Emoji" font-size="14px" fill="#1e1e1e" text-anchor="middle" style="white-space: pre;" direction="ltr" dominant-baseline="text-before-edge">islands, signal heads</text></g><g stroke-linecap="round" transform="translate(920 300) rotate(0 75 40)"><path d="M20 0 C65.49 -0.83, 107.56 2.23, 130 0 C142.12 1.07, 149.75 4.66, 150 20 C145.93 32.64, 151.05 52.45, 150 60 C147.92 75.57, 144.05 81.72, 130 80 C92.78 80.41, 63.92 75.9, 20 80 C3.64 79.36, -2.19 73.61, 0 60 C-1.25 48.44, 2.84 36.62, 0 20 C-1.14 8.04, 3.1 0.84, 20 0" stroke="none" stroke-width="0" fill="#e9ecef"></path><path d="M20 0 C56.17 -0.68, 92.78 0.36, 130 0 M20 0 C49.66 -0.37, 79.34 -1.19, 130 0 M130 0 C142.01 0.53, 151.55 8.46, 150 20 M130 0 C144.99 -1.54, 151.45 6.28, 150 20 M150 20 C150.33 30.77, 148.29 39.57, 150 60 M150 20 C149.27 36.07, 150.34 50.58, 150 60 M150 60 C148.74 71.86, 142.82 78.68, 130 80 M150 60 C150.67 74.45, 141.53 79.15, 130 80 M130 80 C96.43 82.11, 64.04 80.21, 20 80 M130 80 C98.62 81.66, 68.24 81.16, 20 80 M20 80 C7.52 79.85, -0.07 73.53, 0 60 M20 80 C5.43 79.11, -0.35 72.42, 0 60 M0 60 C1.19 46.71, -1.25 35.53, 0 20 M0 60 C0.12 45.05, -0.32 29.4, 0 20 M0 20 C1.52 6.31, 7.37 -1.77, 20 0 M0 20 C1.09 8.71, 6.08 2.3, 20 0" stroke="#1e1e1e" stroke-width="2" fill="none"></path></g><g transform="translate(928 319.84000000000003) rotate(0 67 20)"><text x="67" y="0" font-family="Virgil, Segoe UI Emoji" font-size="16px" fill="#1e1e1e" text-anchor="middle" style="white-space: pre;" direction="ltr" dominant-baseline="text-before-edge">Zones in this</text><text x="67" y="20" font-family="Virgil, Segoe UI Emoji" font-size="16px" fill="#1e1e1e" text-anchor="middle" style="white-space: pre;" direction="ltr" dominant-baseline="text-before-edge">video's pixels</text></g><g stroke-linecap="round"><g transform="translate(95 240) rotate(0 62.5 50)"><path d="M0.43 -0.14 C0.2 16.55, -20.89 82.46, -0.25 99.3 C20.4 116.14, 103.43 100.7, 124.31 100.89 M-0.8 -1.26 C-1.31 15.64, -21.99 83.76, -1.33 100.47 C19.34 117.18, 102.07 98.8, 123.18 99.01" stroke="#495057" stroke-width="2" fill="none"></path></g><g transform="translate(95 240) rotate(0 62.5 50)"><path d="M96.21 112.15 C106.74 106.44, 116.48 100.51, 123.18 99.01 M96.21 112.15 C105.73 107.25, 117.12 103.02, 123.18 99.01" stroke="#495057" stroke-width="2" fill="none"></path></g><g transform="translate(95 240) rotate(0 62.5 50)"><path d="M94.08 91.74 C105.31 94.1, 115.89 96.24, 123.18 99.01 M94.08 91.74 C104.41 94.46, 116.59 97.86, 123.18 99.01" stroke="#495057" stroke-width="2" fill="none"></path></g></g><mask></mask><g stroke-linecap="round"><g transform="translate(390 340) rotate(0 20 0)"><path d="M-0.37 0 C6.36 0.04, 33.68 -0.3, 40.42 -0.23 M0.44 -0.48 C7.14 -0.32, 33.65 0.35, 40.21 0.35" stroke="#495057" stroke-width="2" fill="none"></path></g><g transform="translate(390 340) rotate(0 20 0)"><path d="M21.32 6.92 C27.06 5.76, 32.35 3.18, 40.21 0.35 M21.32 6.92 C27.94 4.18, 35.52 1.95, 40.21 0.35" stroke="#495057" stroke-width="2" fill="none"></path></g><g transform="translate(390 340) rotate(0 20 0)"><path d="M21.52 -6.76 C27.14 -3.78, 32.37 -2.23, 40.21 0.35 M21.52 -6.76 C28.04 -4.46, 35.55 -1.65, 40.21 0.35" stroke="#495057" stroke-width="2" fill="none"></path></g></g><mask></mask><g stroke-linecap="round"><g transform="translate(620 340) rotate(0 20 0)"><path d="M0.51 0.41 C7.19 0.45, 33.42 0.25, 40.04 0.16 M0.12 0.14 C6.73 0.02, 32.99 -0.76, 39.63 -0.73" stroke="#495057" stroke-width="2" fill="none"></path></g><g transform="translate(620 340) rotate(0 20 0)"><path d="M20.94 6.39 C27.21 4.27, 32.28 2.5, 39.63 -0.73 M20.94 6.39 C25.95 4.6, 30.73 2.95, 39.63 -0.73" stroke="#495057" stroke-width="2" fill="none"></path></g><g transform="translate(620 340) rotate(0 20 0)"><path d="M20.74 -7.29 C27.06 -5.36, 32.18 -3.09, 39.63 -0.73 M20.74 -7.29 C25.76 -5.37, 30.59 -3.32, 39.63 -0.73" stroke="#495057" stroke-width="2" fill="none"></path></g></g><mask></mask><g stroke-linecap="round"><g transform="translate(880 340) rotate(0 20 0)"><path d="M0.52 0.52 C7.28 0.57, 33.77 0.64, 40.27 0.51 M0.12 0.31 C6.86 0.21, 33.23 -0.18, 39.98 -0.19" stroke="#495057" stroke-width="2" fill="none"></path></g><g transform="translate(880 340) rotate(0 20 0)"><path d="M21.25 6.82 C26.79 5.5, 31.37 2.45, 39.98 -0.19 M21.25 6.82 C25.96 5.29, 30.37 2.83, 39.98 -0.19" stroke="#495057" stroke-width="2" fill="none"></path></g><g transform="translate(880 340) rotate(0 20 0)"><path d="M21.13 -6.86 C26.71 -4.82, 31.33 -4.51, 39.98 -0.19 M21.13 -6.86 C25.91 -4.87, 30.36 -3.81, 39.98 -0.19" stroke="#495057" stroke-width="2" fill="none"></path></g></g><mask></mask><g stroke-linecap="round"><g transform="translate(1070 340) rotate(0 20 -20)"><path d="M0.66 0.7 C7.66 -5.84, 34.59 -32.93, 41.09 -39.81 M-0.45 0.03 C6.57 -6.25, 34.18 -31.57, 40.72 -38.18" stroke="#495057" stroke-width="2" fill="none"></path></g><g transform="translate(1070 340) rotate(0 20 -20)"><path d="M28.18 -12.82 C32.26 -16.73, 34.2 -24.7, 40.72 -38.18 M28.18 -12.82 C31.3 -18.71, 33.59 -26.08, 40.72 -38.18" stroke="#495057" stroke-width="2" fill="none"></path></g><g transform="translate(1070 340) rotate(0 20 -20)"><path d="M14.82 -26.82 C21.82 -27.67, 26.73 -32.53, 40.72 -38.18 M14.82 -26.82 C21.37 -29.2, 27 -33.08, 40.72 -38.18" stroke="#495057" stroke-width="2" fill="none"></path></g></g><mask></mask><g stroke-linecap="round" transform="translate(430 430) rotate(0 95 40)"><path d="M20 0 C55.64 1.29, 87.69 -2.04, 170 0 C183.58 0.62, 193.22 7.55, 190 20 C193.42 29.5, 191.48 38.45, 190 60 C191.08 70.92, 183.45 79.28, 170 80 C124.03 74.8, 78.56 77.69, 20 80 C4.11 78.25, 2.52 74.66, 0 60 C2.73 51.9, -1.67 37.7, 0 20 C2.96 3.94, 6.73 2.55, 20 0" stroke="none" stroke-width="0" fill="#e9ecef"></path><path d="M20 0 C61.37 0.39, 104.76 -2.75, 170 0 M20 0 C52.73 0.2, 87.48 0.37, 170 0 M170 0 C184.78 1.44, 191.71 6.72, 190 20 M170 0 C184.22 0.31, 190.58 4.95, 190 20 M190 20 C191.39 34.63, 190.69 49.74, 190 60 M190 20 C190 34.36, 189.96 48.51, 190 60 M190 60 C190.43 73.27, 183.46 78.32, 170 80 M190 60 C190.9 72.07, 184.47 81.03, 170 80 M170 80 C135.95 79.06, 102.15 79.49, 20 80 M170 80 C117.48 79.37, 62.56 79.63, 20 80 M20 80 C7.45 81.83, 0.25 71.89, 0 60 M20 80 C8.67 81.93, -0.47 71.24, 0 60 M0 60 C-0.27 46.12, -1.25 36.06, 0 20 M0 60 C0.05 45.81, 0.04 32.54, 0 20 M0 20 C1.15 4.77, 8.37 -1.72, 20 0 M0 20 C1.46 6.25, 7.67 2.23, 20 0" stroke="#1e1e1e" stroke-width="2" fill="none"></path></g><g transform="translate(438 449.84000000000003) rotate(0 87 20)"><text x="87" y="0" font-family="Virgil, Segoe UI Emoji" font-size="16px" fill="#1e1e1e" text-anchor="middle" style="white-space: pre;" direction="ltr" dominant-baseline="text-before-edge">Signal-head crops</text><text x="87" y="20" font-family="Virgil, Segoe UI Emoji" font-size="16px" fill="#1e1e1e" text-anchor="middle" style="white-space: pre;" direction="ltr" dominant-baseline="text-before-edge">(signal_4, signal_5)</text></g><g stroke-linecap="round" transform="translate(660 430) rotate(0 110 40)"><path d="M20 0 C85.49 -1.77, 150.23 -1.43, 200 0 C209.97 -1.69, 216.45 7.72, 220 20 C220.68 32.67, 218.03 51.54, 220 60 C222.97 70.71, 213.67 83.18, 200 80 C130.78 76.62, 61.83 79.44, 20 80 C3.86 79.34, -0.23 76.26, 0 60 C-0.9 48.99, -0.28 38.96, 0 20 C-2.71 7.9, 9.57 0.61, 20 0" stroke="none" stroke-width="0" fill="#e9ecef"></path><path d="M20 0 C93.11 -0.19, 161.94 2.67, 200 0 M20 0 C67.27 -1.37, 113.3 -1.57, 200 0 M200 0 C211.46 0.64, 221.72 6.9, 220 20 M200 0 C212.42 -0.23, 219.94 6.31, 220 20 M220 20 C218.38 35.44, 221.25 52.46, 220 60 M220 20 C219.92 31.41, 220.15 43.61, 220 60 M220 60 C219.71 72.44, 211.43 81.49, 200 80 M220 60 C220.74 74.49, 214.61 81.57, 200 80 M200 80 C129.82 80.16, 61.18 79.13, 20 80 M200 80 C160.45 78.86, 120.36 79.27, 20 80 M20 80 C6.27 81.73, 0.69 71.74, 0 60 M20 80 C8.71 79.73, -0.39 74.64, 0 60 M0 60 C1.36 43.36, 1.59 29.86, 0 20 M0 60 C-0.43 47.44, 1.08 35.92, 0 20 M0 20 C1.15 7.48, 6.31 0.52, 20 0 M0 20 C-1.08 6.94, 6.6 1.46, 20 0" stroke="#1e1e1e" stroke-width="2" fill="none"></path></g><g transform="translate(668 449.84000000000003) rotate(0 102 20)"><text x="102" y="0" font-family="Virgil, Segoe UI Emoji" font-size="16px" fill="#1e1e1e" text-anchor="middle" style="white-space: pre;" direction="ltr" dominant-baseline="text-before-edge">Lamp colour + lamp</text><text x="102" y="20" font-family="Virgil, Segoe UI Emoji" font-size="16px" fill="#1e1e1e" text-anchor="middle" style="white-space: pre;" direction="ltr" dominant-baseline="text-before-edge">position, flicker &lt; 3 s off</text></g><g stroke-linecap="round" transform="translate(920 430) rotate(0 75 40)"><path d="M20 0 C39.93 -1.03, 67.08 0.67, 130 0 C139.91 -0.45, 148.47 5.13, 150 20 C148.57 31.2, 150.38 47.54, 150 60 C147.1 70.66, 142.32 78.36, 130 80 C90.11 82.84, 50.12 83.42, 20 80 C4.37 79.46, -1.99 74.98, 0 60 C-0.16 52.21, -1.08 39.26, 0 20 C3.46 8.02, 6.28 -0.35, 20 0" stroke="none" stroke-width="0" fill="#e9ecef"></path><path d="M20 0 C44.37 -2.42, 67.66 -2.02, 130 0 M20 0 C49.24 0.86, 77.08 0.49, 130 0 M130 0 C144.79 0.37, 149.2 5.97, 150 20 M130 0 C144.29 -0.19, 148.05 8.56, 150 20 M150 20 C148.13 37.22, 148.65 52.62, 150 60 M150 20 C149.26 33.08, 149.37 46.87, 150 60 M150 60 C148.33 72.86, 142.32 78.24, 130 80 M150 60 C148.49 73.1, 143.85 81.52, 130 80 M130 80 C97.08 78.77, 62.07 79.06, 20 80 M130 80 C86.64 79.63, 44.31 79.7, 20 80 M20 80 C8.06 80.62, -1.93 74.76, 0 60 M20 80 C8.28 77.77, -0.44 75.48, 0 60 M0 60 C1.56 51.8, 0.49 40.52, 0 20 M0 60 C1.14 44.15, -0.6 28.98, 0 20 M0 20 C-0.4 6.71, 7.15 0.92, 20 0 M0 20 C-2.19 8.12, 4.5 1.7, 20 0" stroke="#1e1e1e" stroke-width="2" fill="none"></path></g><g transform="translate(928 449.84000000000003) rotate(0 67 20)"><text x="67" y="0" font-family="Virgil, Segoe UI Emoji" font-size="16px" fill="#1e1e1e" text-anchor="middle" style="white-space: pre;" direction="ltr" dominant-baseline="text-before-edge">Light timeline</text><text x="67" y="20" font-family="Virgil, Segoe UI Emoji" font-size="16px" fill="#1e1e1e" text-anchor="middle" style="white-space: pre;" direction="ltr" dominant-baseline="text-before-edge">red / green</text></g><g stroke-linecap="round"><g transform="translate(305 240) rotate(0 62.5 115)"><path d="M0.15 0.05 C0.11 38.07, -20.55 190.98, 0.4 229.23 C21.35 267.48, 105.11 229.56, 125.85 229.54 M-1.23 -0.97 C-1.45 37.7, -21.46 191.77, -0.34 230.36 C20.79 268.96, 104.65 230.72, 125.54 230.61" stroke="#495057" stroke-width="2" fill="none"></path></g><g transform="translate(305 240) rotate(0 62.5 115)"><path d="M100.28 246.81 C109.12 241.73, 116.66 236.77, 125.54 230.61 M100.28 246.81 C106.85 242.63, 112.67 238.37, 125.54 230.61" stroke="#495057" stroke-width="2" fill="none"></path></g><g transform="translate(305 240) rotate(0 62.5 115)"><path d="M95.78 226.78 C106.39 228.76, 115.52 230.87, 125.54 230.61 M95.78 226.78 C103.5 227.88, 110.49 228.85, 125.54 230.61" stroke="#495057" stroke-width="2" fill="none"></path></g></g><mask></mask><g stroke-linecap="round"><g transform="translate(620 470) rotate(0 20 0)"><path d="M-0.14 0.12 C6.39 0.19, 32.86 0.55, 39.57 0.53 M0.78 -0.29 C7.45 -0.37, 34.08 -0.31, 40.59 -0.16" stroke="#495057" stroke-width="2" fill="none"></path></g><g transform="translate(620 470) rotate(0 20 0)"><path d="M21.72 6.48 C28.87 3.28, 36.55 1.85, 40.59 -0.16 M21.72 6.48 C27.41 4.81, 33.41 2.9, 40.59 -0.16" stroke="#495057" stroke-width="2" fill="none"></path></g><g transform="translate(620 470) rotate(0 20 0)"><path d="M21.87 -7.2 C28.98 -5.37, 36.61 -1.77, 40.59 -0.16 M21.87 -7.2 C27.46 -4.7, 33.41 -2.43, 40.59 -0.16" stroke="#495057" stroke-width="2" fill="none"></path></g></g><mask></mask><g stroke-linecap="round"><g transform="translate(880 470) rotate(0 20 0)"><path d="M0.32 0.35 C6.92 0.32, 33.29 -0.42, 39.85 -0.46 M-0.17 0.06 C6.32 0.1, 32.51 -0.12, 39.34 0" stroke="#495057" stroke-width="2" fill="none"></path></g><g transform="translate(880 470) rotate(0 20 0)"><path d="M20.53 6.78 C27.77 4.08, 32.87 1.38, 39.34 0 M20.53 6.78 C26.54 4.36, 32 2.07, 39.34 0" stroke="#495057" stroke-width="2" fill="none"></path></g><g transform="translate(880 470) rotate(0 20 0)"><path d="M20.57 -6.9 C27.76 -4.81, 32.85 -2.72, 39.34 0 M20.57 -6.9 C26.6 -4.97, 32.04 -2.9, 39.34 0" stroke="#495057" stroke-width="2" fill="none"></path></g></g><mask></mask><g stroke-linecap="round"><g transform="translate(1070 470) rotate(0 40 -65)"><path d="M0 -0.37 C13.56 -22.16, 67.59 -107.95, 80.98 -129.65 M-1.46 -1.62 C12.06 -23.27, 67.01 -110.26, 80.54 -131.58" stroke="#495057" stroke-width="2" fill="none"></path></g><g transform="translate(1070 470) rotate(0 40 -65)"><path d="M74.14 -102.28 C74.96 -108.46, 77.88 -117.34, 80.54 -131.58 M74.14 -102.28 C76.06 -110.01, 76.54 -116.86, 80.54 -131.58" stroke="#495057" stroke-width="2" fill="none"></path></g><g transform="translate(1070 470) rotate(0 40 -65)"><path d="M56.8 -113.25 C62.34 -116.51, 69.89 -122.46, 80.54 -131.58 M56.8 -113.25 C63.2 -118.19, 68.06 -122.27, 80.54 -131.58" stroke="#495057" stroke-width="2" fill="none"></path></g></g><mask></mask><g stroke-linecap="round" transform="translate(1410 290) rotate(0 210 55)"><path d="M27.5 0 C149.89 0.19, 275 -3.59, 392.5 0 C410.46 -1.62, 422.1 12.14, 420 27.5 C417.49 45.79, 423.43 59.22, 420 82.5 C419.93 98.24, 411.98 107.43, 392.5 110 C248.53 105.16, 108.42 104.79, 27.5 110 C7.13 112.76, 2.25 99.23, 0 82.5 C2.64 69.99, -2.05 61.41, 0 27.5 C-2.8 12.47, 5.82 -0.67, 27.5 0" stroke="none" stroke-width="0" fill="#ffc9c9"></path><path d="M27.5 0 C139.42 -0.02, 253.37 1.92, 392.5 0 M392.5 0 C411.94 1.73, 418.26 8.07, 420 27.5 M420 27.5 C421.58 42.1, 420.65 52.05, 420 82.5 M420 82.5 C418.86 99.84, 410.57 111.28, 392.5 110 M392.5 110 C269.4 111.6, 146.61 111.95, 27.5 110 M27.5 110 C8 109.96, 0.77 101.54, 0 82.5 M0 82.5 C1.93 68.27, -0.23 55.39, 0 27.5 M0 27.5 C1.58 11.02, 10.67 -0.3, 27.5 0" stroke="#1e1e1e" stroke-width="2.5" fill="none" stroke-dasharray="8 10"></path></g><g transform="translate(1418 309.72) rotate(0 202 35)"><text x="202" y="0" font-family="Virgil, Segoe UI Emoji" font-size="14px" fill="#1e1e1e" text-anchor="middle" style="white-space: pre;" direction="ltr" dominant-baseline="text-before-edge">Not emitted (no reliable detector on the samples):</text><text x="202" y="17.5" font-family="Virgil, Segoe UI Emoji" font-size="14px" fill="#1e1e1e" text-anchor="middle" style="white-space: pre;" direction="ltr" dominant-baseline="text-before-edge">near_miss, red_light, wrong_way, accident,</text><text x="202" y="35" font-family="Virgil, Segoe UI Emoji" font-size="14px" fill="#1e1e1e" text-anchor="middle" style="white-space: pre;" direction="ltr" dominant-baseline="text-before-edge">illegal_u_turn, road_obstacle, fire_smoke</text><text x="202" y="52.5" font-family="Virgil, Segoe UI Emoji" font-size="14px" fill="#1e1e1e" text-anchor="middle" style="white-space: pre;" direction="ltr" dominant-baseline="text-before-edge">(an absent class we predict adds a zero)</text></g><g transform="translate(10 570) rotate(0 350 12.5)"><text x="0" y="0" font-family="Virgil, Segoe UI Emoji" font-size="20px" fill="#1e1e1e" text-anchor="start" style="white-space: pre;" direction="ltr" dominant-baseline="text-before-edge">Part B: causal P(accident starts within 5 s), one value per frame</text></g><g stroke-linecap="round" transform="translate(10 610) rotate(0 85 45)"><path d="M22.5 0 C68.79 3.52, 115.9 -0.87, 147.5 0 C163.2 -2.58, 173.21 4.09, 170 22.5 C168.55 41.62, 168.54 53.8, 170 67.5 C170.77 80.05, 159.22 91.88, 147.5 90 C102.92 90.22, 48.41 90.76, 22.5 90 C6.49 90.5, -0.83 84.91, 0 67.5 C-1.96 58.1, 2.1 51.64, 0 22.5 C3.05 10.54, 7.99 -0.03, 22.5 0" stroke="none" stroke-width="0" fill="#fff3bf"></path><path d="M22.5 0 C58.62 0.03, 95.91 0.22, 147.5 0 M22.5 0 C56.41 -0.44, 89.28 -0.61, 147.5 0 M147.5 0 C164.28 1.24, 170.27 6.5, 170 22.5 M147.5 0 C161.5 2.08, 168.72 5.89, 170 22.5 M170 22.5 C170.75 32.95, 171.09 43.75, 170 67.5 M170 22.5 C170.59 34.23, 168.72 44.46, 170 67.5 M170 67.5 C168.11 81.55, 162.26 88.74, 147.5 90 M170 67.5 C171.62 84.76, 163.1 88.98, 147.5 90 M147.5 90 C117.56 92.91, 87.59 92.15, 22.5 90 M147.5 90 C101.35 91.83, 54.39 90.22, 22.5 90 M22.5 90 C5.5 90.48, 1.28 80.71, 0 67.5 M22.5 90 C9.13 90.22, 1.61 81.02, 0 67.5 M0 67.5 C0.91 51.71, 1.03 38.27, 0 22.5 M0 67.5 C-0.79 52.4, -0.07 37.44, 0 22.5 M0 22.5 C1.25 9.38, 6.62 0.42, 22.5 0 M0 22.5 C0.16 8.62, 6.76 0.2, 22.5 0" stroke="#1e1e1e" stroke-width="2" fill="none"></path></g><g transform="translate(18 634.8399999999999) rotate(0 77 20)"><text x="77" y="0" font-family="Virgil, Segoe UI Emoji" font-size="16px" fill="#1e1e1e" text-anchor="middle" style="white-space: pre;" direction="ltr" dominant-baseline="text-before-edge">Frames in order</text><text x="77" y="20" font-family="Virgil, Segoe UI Emoji" font-size="16px" fill="#1e1e1e" text-anchor="middle" style="white-space: pre;" direction="ltr" dominant-baseline="text-before-edge">(only the past)</text></g><g stroke-linecap="round" transform="translate(220 610) rotate(0 95 45)"><path d="M22.5 0 C69.77 0.65, 120.65 0.19, 167.5 0 C182.64 -1.2, 190.25 10.15, 190 22.5 C193.56 35.61, 188.71 51.23, 190 67.5 C187.84 79.59, 185.3 87.97, 167.5 90 C138.48 88.2, 105.4 87.96, 22.5 90 C4.39 86.55, -2.78 79.38, 0 67.5 C1.97 56.62, 0.32 44.02, 0 22.5 C-2.76 4.75, 7.38 -0.09, 22.5 0" stroke="none" stroke-width="0" fill="#a5d8ff"></path><path d="M22.5 0 C67.01 -0.91, 109.67 2.18, 167.5 0 M22.5 0 C62.78 1.47, 103.44 0.17, 167.5 0 M167.5 0 C183.73 1.32, 188.87 8.61, 190 22.5 M167.5 0 C181.68 -0.28, 190.44 7.81, 190 22.5 M190 22.5 C191.13 36.57, 188.8 49.5, 190 67.5 M190 22.5 C190.35 31.52, 189.72 39.92, 190 67.5 M190 67.5 C189.6 83.26, 180.86 91.21, 167.5 90 M190 67.5 C191.11 81.29, 182.13 90.15, 167.5 90 M167.5 90 C125.98 89.3, 85.28 87.99, 22.5 90 M167.5 90 C126.2 87.81, 83.41 88.91, 22.5 90 M22.5 90 C6.92 90.03, 1.48 81.92, 0 67.5 M22.5 90 C6.71 88.68, -0.33 80.64, 0 67.5 M0 67.5 C-2.14 52.12, 0.2 37.48, 0 22.5 M0 67.5 C0.48 53.99, 0.03 40.78, 0 22.5 M0 22.5 C1.26 7.77, 8.14 0.75, 22.5 0 M0 22.5 C-1.54 8.93, 6.18 0.61, 22.5 0" stroke="#1e1e1e" stroke-width="2" fill="none"></path></g><g transform="translate(228 624.76) rotate(0 87 30)"><text x="87" y="0" font-family="Virgil, Segoe UI Emoji" font-size="16px" fill="#1e1e1e" text-anchor="middle" style="white-space: pre;" direction="ltr" dominant-baseline="text-before-edge">YOLO26s @960</text><text x="87" y="20" font-family="Virgil, Segoe UI Emoji" font-size="16px" fill="#1e1e1e" text-anchor="middle" style="white-space: pre;" direction="ltr" dominant-baseline="text-before-edge">+ ByteTrack</text><text x="87" y="40" font-family="Virgil, Segoe UI Emoji" font-size="16px" fill="#1e1e1e" text-anchor="middle" style="white-space: pre;" direction="ltr" dominant-baseline="text-before-edge">every 3rd frame</text></g><g stroke-linecap="round" transform="translate(450 610) rotate(0 115 45)"><path d="M22.5 0 C63.81 -0.27, 101.48 -3.93, 207.5 0 C221.58 0.44, 232.83 4.58, 230 22.5 C231.82 43, 226.51 59.5, 230 67.5 C232.49 80.66, 221.7 86.4, 207.5 90 C156.73 84.14, 108.72 87.67, 22.5 90 C4.34 87.41, -3.05 85.81, 0 67.5 C-1.63 53.89, -0.6 32.25, 0 22.5 C-0.7 5.54, 9.69 -3.21, 22.5 0" stroke="none" stroke-width="0" fill="#e9ecef"></path><path d="M22.5 0 C88.39 -0.03, 150.43 -0.62, 207.5 0 M22.5 0 C62.1 -0.32, 103.12 -1.66, 207.5 0 M207.5 0 C221.14 -1.56, 230.86 7.07, 230 22.5 M207.5 0 C224.28 1.21, 231.72 8.6, 230 22.5 M230 22.5 C230.39 38.93, 232.04 53.87, 230 67.5 M230 22.5 C230.4 34.01, 230.13 45.43, 230 67.5 M230 67.5 C230.11 83.51, 221.72 90.67, 207.5 90 M230 67.5 C231.91 80.95, 223.6 89.7, 207.5 90 M207.5 90 C163.11 89.65, 119.71 91.25, 22.5 90 M207.5 90 C136.27 89.93, 66.6 89.87, 22.5 90 M22.5 90 C8.87 89.37, -0.03 84.37, 0 67.5 M22.5 90 C7.21 90.93, -0.95 80.82, 0 67.5 M0 67.5 C-1.59 54.19, 1.49 45.64, 0 22.5 M0 67.5 C-0.69 58.1, 0.47 50.22, 0 22.5 M0 22.5 C0.59 9.35, 8.03 1.95, 22.5 0 M0 22.5 C0.64 9.49, 5.49 2.17, 22.5 0" stroke="#1e1e1e" stroke-width="2" fill="none"></path></g><g transform="translate(458 624.76) rotate(0 107 30)"><text x="107" y="0" font-family="Virgil, Segoe UI Emoji" font-size="16px" fill="#1e1e1e" text-anchor="middle" style="white-space: pre;" direction="ltr" dominant-baseline="text-before-edge">Every pair of road users:</text><text x="107" y="20" font-family="Virgil, Segoe UI Emoji" font-size="16px" fill="#1e1e1e" text-anchor="middle" style="white-space: pre;" direction="ltr" dominant-baseline="text-before-edge">closing speed, time to</text><text x="107" y="40" font-family="Virgil, Segoe UI Emoji" font-size="16px" fill="#1e1e1e" text-anchor="middle" style="white-space: pre;" direction="ltr" dominant-baseline="text-before-edge">contact (sizes/s)</text></g><g stroke-linecap="round" transform="translate(720 610) rotate(0 110 45)"><path d="M22.5 0 C81.03 -0.06, 132.05 1.24, 197.5 0 C210.72 -3.11, 221.76 9.19, 220 22.5 C217.42 39.31, 224.06 56.47, 220 67.5 C223.37 85.71, 213.38 90.52, 197.5 90 C150.18 91.7, 101.08 87.06, 22.5 90 C10.94 87.08, 1.3 85.19, 0 67.5 C1.78 49.2, 1.14 28.85, 0 22.5 C-0.96 4.54, 7.04 -1.8, 22.5 0" stroke="none" stroke-width="0" fill="#e9ecef"></path><path d="M22.5 0 C58.9 0.99, 96.42 -1.38, 197.5 0 M22.5 0 C69.99 0.1, 116.91 -0.11, 197.5 0 M197.5 0 C212.48 -1.06, 218.29 8.72, 220 22.5 M197.5 0 C210.49 -2.15, 218.61 5.6, 220 22.5 M220 22.5 C219.13 39.03, 219.26 58.57, 220 67.5 M220 22.5 C221.03 38.79, 220.64 54.77, 220 67.5 M220 67.5 C220.35 83.99, 212.27 89.53, 197.5 90 M220 67.5 C221.97 83.6, 212.4 90.05, 197.5 90 M197.5 90 C134.43 88.92, 74.62 90.02, 22.5 90 M197.5 90 C158.94 88.47, 120.95 89.38, 22.5 90 M22.5 90 C9.09 91.6, 0.82 83.01, 0 67.5 M22.5 90 C6.59 88.34, 0.79 80.57, 0 67.5 M0 67.5 C-0.64 53.83, -0.97 39.61, 0 22.5 M0 67.5 C0.61 53.99, -0.15 39.41, 0 22.5 M0 22.5 C1.62 7.22, 5.95 -1.6, 22.5 0 M0 22.5 C-0.02 7.43, 7.15 2.03, 22.5 0" stroke="#1e1e1e" stroke-width="2" fill="none"></path></g><g transform="translate(728 624.76) rotate(0 102 30)"><text x="102" y="0" font-family="Virgil, Segoe UI Emoji" font-size="16px" fill="#1e1e1e" text-anchor="middle" style="white-space: pre;" direction="ltr" dominant-baseline="text-before-edge">DRAC = deceleration</text><text x="102" y="20" font-family="Virgil, Segoe UI Emoji" font-size="16px" fill="#1e1e1e" text-anchor="middle" style="white-space: pre;" direction="ltr" dominant-baseline="text-before-edge">needed to avoid the crash</text><text x="102" y="40" font-family="Virgil, Segoe UI Emoji" font-size="16px" fill="#1e1e1e" text-anchor="middle" style="white-space: pre;" direction="ltr" dominant-baseline="text-before-edge">persistence + smoothing</text></g><g stroke-linecap="round" transform="translate(980 610) rotate(0 100 45)"><path d="M22.5 0 C70.08 2.94, 118.75 -3.51, 177.5 0 C190.96 -0.56, 196.49 10.17, 200 22.5 C197.21 31.59, 201.35 45.82, 200 67.5 C199.83 82.48, 191.4 90.91, 177.5 90 C128.2 88.78, 87.59 90.14, 22.5 90 C10.94 89.37, -1.69 84.32, 0 67.5 C3.24 51.43, 2.42 32.37, 0 22.5 C1.7 4.52, 8.09 -1.9, 22.5 0" stroke="none" stroke-width="0" fill="#e9ecef"></path><path d="M22.5 0 C80.75 -1.52, 141.93 -1.11, 177.5 0 M22.5 0 C80.47 1.82, 137.66 1.87, 177.5 0 M177.5 0 C190.95 0.37, 201.2 5.85, 200 22.5 M177.5 0 C192.98 -0.14, 201.51 5.6, 200 22.5 M200 22.5 C198.69 33.65, 200.91 45.98, 200 67.5 M200 22.5 C199.91 33.74, 200.84 44.48, 200 67.5 M200 67.5 C198.47 83.11, 194.19 90.27, 177.5 90 M200 67.5 C201.32 82.39, 191.26 91.79, 177.5 90 M177.5 90 C127.05 90.62, 74.3 90.05, 22.5 90 M177.5 90 C133.34 88.88, 87.84 88.88, 22.5 90 M22.5 90 C8.53 90.64, 1.76 84.16, 0 67.5 M22.5 90 C6.12 89.2, -2.22 83.94, 0 67.5 M0 67.5 C1.83 56.87, -0.5 50.83, 0 22.5 M0 67.5 C0.42 50.07, 0.05 32.07, 0 22.5 M0 22.5 C0.18 9.46, 7.08 1.45, 22.5 0 M0 22.5 C0.73 9.11, 7.62 0.19, 22.5 0" stroke="#1e1e1e" stroke-width="2" fill="none"></path></g><g transform="translate(988 624.76) rotate(0 92 30)"><text x="92" y="0" font-family="Virgil, Segoe UI Emoji" font-size="16px" fill="#1e1e1e" text-anchor="middle" style="white-space: pre;" direction="ltr" dominant-baseline="text-before-edge">Calibrated: normal</text><text x="92" y="20" font-family="Virgil, Segoe UI Emoji" font-size="16px" fill="#1e1e1e" text-anchor="middle" style="white-space: pre;" direction="ltr" dominant-baseline="text-before-edge">traffic &lt; 0.5</text><text x="92" y="40" font-family="Virgil, Segoe UI Emoji" font-size="16px" fill="#1e1e1e" text-anchor="middle" style="white-space: pre;" direction="ltr" dominant-baseline="text-before-edge">(0 alarms in 7.4 min)</text></g><g stroke-linecap="round" transform="translate(1220 610) rotate(0 90 45)"><path d="M22.5 0 C71.69 0.69, 120 5.58, 157.5 0 C172.29 1.09, 181.82 5.99, 180 22.5 C178.56 39.31, 177.36 55.19, 180 67.5 C183.28 81.37, 173.81 91.88, 157.5 90 C118.83 88.66, 87.3 91.68, 22.5 90 C5.53 90.24, -0.1 85.79, 0 67.5 C4 59.42, 4.18 50.89, 0 22.5 C0.01 8.01, 8.3 0.09, 22.5 0" stroke="none" stroke-width="0" fill="#b2f2bb"></path><path d="M22.5 0 C66.74 -1.84, 108.97 0.3, 157.5 0 M22.5 0 C60.93 -1.03, 99.29 -1.46, 157.5 0 M157.5 0 C171.55 0.74, 179.68 8.97, 180 22.5 M157.5 0 C170.55 1.33, 179.21 7.64, 180 22.5 M180 22.5 C180.84 33.87, 179.76 42.04, 180 67.5 M180 22.5 C179.51 35.59, 180.53 48.4, 180 67.5 M180 67.5 C179.64 82.69, 170.65 91.68, 157.5 90 M180 67.5 C180.3 82.31, 173.96 91.78, 157.5 90 M157.5 90 C119.36 92.37, 81.63 92.14, 22.5 90 M157.5 90 C118.95 89.8, 81.09 89.15, 22.5 90 M22.5 90 C8.52 90.17, 1.77 82.25, 0 67.5 M22.5 90 C5.44 91.2, 2.14 80.39, 0 67.5 M0 67.5 C-1.02 54.94, 1.69 42.97, 0 22.5 M0 67.5 C-0.13 48.89, -0.78 32.55, 0 22.5 M0 22.5 C1.25 6.44, 6.76 1.21, 22.5 0 M0 22.5 C-1.58 8.07, 8.06 -1.49, 22.5 0" stroke="#1e1e1e" stroke-width="2" fill="none"></path></g><g transform="translate(1228 634.8399999999999) rotate(0 82 20)"><text x="82" y="0" font-family="Virgil, Segoe UI Emoji" font-size="16px" fill="#1e1e1e" text-anchor="middle" style="white-space: pre;" direction="ltr" dominant-baseline="text-before-edge">risk in [0, 1]</text><text x="82" y="20" font-family="Virgil, Segoe UI Emoji" font-size="16px" fill="#1e1e1e" text-anchor="middle" style="white-space: pre;" direction="ltr" dominant-baseline="text-before-edge">per frame</text></g><g stroke-linecap="round"><g transform="translate(180 655) rotate(0 20 0)"><path d="M0.28 -0.51 C7.04 -0.58, 33.66 -0.56, 40.26 -0.41 M-0.25 0.41 C6.49 0.41, 33.34 0.23, 39.96 0.08" stroke="#495057" stroke-width="2" fill="none"></path></g><g transform="translate(180 655) rotate(0 20 0)"><path d="M21.26 7.17 C24.87 5.87, 29.6 3.43, 39.96 0.08 M21.26 7.17 C28.28 4.3, 35.37 2.2, 39.96 0.08" stroke="#495057" stroke-width="2" fill="none"></path></g><g transform="translate(180 655) rotate(0 20 0)"><path d="M21.08 -6.51 C24.73 -4.49, 29.5 -3.61, 39.96 0.08 M21.08 -6.51 C28.14 -4.38, 35.3 -1.48, 39.96 0.08" stroke="#495057" stroke-width="2" fill="none"></path></g></g><mask></mask><g stroke-linecap="round"><g transform="translate(410 655) rotate(0 20 0)"><path d="M0.22 -0.05 C6.78 -0.22, 32.93 -0.47, 39.56 -0.43 M-0.33 -0.56 C6.38 -0.43, 33.9 0.09, 40.57 0.04" stroke="#495057" stroke-width="2" fill="none"></path></g><g transform="translate(410 655) rotate(0 20 0)"><path d="M21.72 6.73 C27.92 3.65, 33.56 2.27, 40.57 0.04 M21.72 6.73 C27.54 4.28, 34.06 2.36, 40.57 0.04" stroke="#495057" stroke-width="2" fill="none"></path></g><g transform="translate(410 655) rotate(0 20 0)"><path d="M21.84 -6.95 C28.06 -5.44, 33.66 -2.23, 40.57 0.04 M21.84 -6.95 C27.57 -4.87, 34.05 -2.26, 40.57 0.04" stroke="#495057" stroke-width="2" fill="none"></path></g></g><mask></mask><g stroke-linecap="round"><g transform="translate(680 655) rotate(0 20 0)"><path d="M-0.53 -0.39 C6.09 -0.36, 33.01 0.28, 39.75 0.34 M0.2 0.59 C6.72 0.46, 32.64 -0.45, 39.19 -0.44" stroke="#495057" stroke-width="2" fill="none"></path></g><g transform="translate(680 655) rotate(0 20 0)"><path d="M20.53 6.76 C25.53 4.19, 32.59 2.25, 39.19 -0.44 M20.53 6.76 C26.55 4.68, 31.41 2.36, 39.19 -0.44" stroke="#495057" stroke-width="2" fill="none"></path></g><g transform="translate(680 655) rotate(0 20 0)"><path d="M20.27 -6.92 C25.36 -5.3, 32.5 -3.05, 39.19 -0.44 M20.27 -6.92 C26.31 -4.86, 31.24 -3.04, 39.19 -0.44" stroke="#495057" stroke-width="2" fill="none"></path></g></g><mask></mask><g stroke-linecap="round"><g transform="translate(940 655) rotate(0 20 0)"><path d="M-0.04 -0.23 C6.62 -0.37, 33.71 -0.52, 40.3 -0.42 M-0.72 -0.82 C5.86 -0.94, 33.14 0.02, 40.03 0.07" stroke="#495057" stroke-width="2" fill="none"></path></g><g transform="translate(940 655) rotate(0 20 0)"><path d="M21.09 6.49 C27.57 4.7, 34.14 0.96, 40.03 0.07 M21.09 6.49 C27.53 4.17, 35.25 1.76, 40.03 0.07" stroke="#495057" stroke-width="2" fill="none"></path></g><g transform="translate(940 655) rotate(0 20 0)"><path d="M21.39 -7.19 C27.82 -3.98, 34.28 -2.73, 40.03 0.07 M21.39 -7.19 C27.74 -4.51, 35.35 -1.92, 40.03 0.07" stroke="#495057" stroke-width="2" fill="none"></path></g></g><mask></mask><g stroke-linecap="round"><g transform="translate(1180 655) rotate(0 20 0)"><path d="M-0.18 -0.52 C6.44 -0.53, 32.91 0.16, 39.66 0.25 M0.72 0.4 C7.53 0.2, 34.15 -0.62, 40.72 -0.59" stroke="#495057" stroke-width="2" fill="none"></path></g><g transform="translate(1180 655) rotate(0 20 0)"><path d="M22.03 6.55 C26.36 3.94, 33.04 3.07, 40.72 -0.59 M22.03 6.55 C28.11 4.02, 33.4 1.97, 40.72 -0.59" stroke="#495057" stroke-width="2" fill="none"></path></g><g transform="translate(1180 655) rotate(0 20 0)"><path d="M21.82 -7.13 C26.24 -5.87, 32.99 -2.86, 40.72 -0.59 M21.82 -7.13 C27.9 -5.58, 33.26 -3.55, 40.72 -0.59" stroke="#495057" stroke-width="2" fill="none"></path></g></g><mask></mask><g transform="translate(10 760) rotate(0 380 12.5)"><text x="0" y="0" font-family="Virgil, Segoe UI Emoji" font-size="20px" fill="#1e1e1e" text-anchor="start" style="white-space: pre;" direction="ltr" dominant-baseline="text-before-edge">How we tuned it (development loop, not part of the submission run)</text></g><g stroke-linecap="round" transform="translate(10 800) rotate(0 100 45)"><path d="M22.5 0 C83.42 -2.67, 134.91 -0.47, 177.5 0 C189.04 1.93, 202.8 4.41, 200 22.5 C200.27 33.68, 197.74 41.75, 200 67.5 C201.98 82.23, 191.57 86.55, 177.5 90 C129.1 93.62, 77.52 94.31, 22.5 90 C8.69 90.32, 2.93 79.05, 0 67.5 C2.79 51.86, -3.16 40.42, 0 22.5 C-0.76 7.85, 5.46 3.57, 22.5 0" stroke="none" stroke-width="0" fill="#d0bfff"></path><path d="M22.5 0 C67.76 -1.51, 114.34 -0.53, 177.5 0 M22.5 0 C57.82 0.6, 93.79 1.23, 177.5 0 M177.5 0 C190.54 1.77, 198.57 7.65, 200 22.5 M177.5 0 C192.09 -0.23, 199.73 9.67, 200 22.5 M200 22.5 C200.63 32.86, 201.98 45.57, 200 67.5 M200 22.5 C200.41 37.47, 199.7 52.47, 200 67.5 M200 67.5 C201.17 81.53, 193.06 90.04, 177.5 90 M200 67.5 C200.02 82.24, 194.68 90.54, 177.5 90 M177.5 90 C134.21 92.02, 89.1 92.56, 22.5 90 M177.5 90 C135.28 90.88, 91.59 91.58, 22.5 90 M22.5 90 C6.13 88.43, 0.5 81.18, 0 67.5 M22.5 90 C5.3 89.19, 2.24 83.92, 0 67.5 M0 67.5 C0.36 57.54, -1.29 45.07, 0 22.5 M0 67.5 C-0.41 48.87, -0.7 32.38, 0 22.5 M0 22.5 C-1.57 9.26, 7.79 1.44, 22.5 0 M0 22.5 C2.01 8.86, 9.74 -1.93, 22.5 0" stroke="#1e1e1e" stroke-width="2" fill="none"></path></g><g transform="translate(18 824.8399999999999) rotate(0 92 20)"><text x="92" y="0" font-family="Virgil, Segoe UI Emoji" font-size="16px" fill="#1e1e1e" text-anchor="middle" style="white-space: pre;" direction="ltr" dominant-baseline="text-before-edge">Our labelling tool</text><text x="92" y="20" font-family="Virgil, Segoe UI Emoji" font-size="16px" fill="#1e1e1e" text-anchor="middle" style="white-space: pre;" direction="ltr" dominant-baseline="text-before-edge">+ per-video bundles</text></g><g stroke-linecap="round" transform="translate(250 800) rotate(0 100 45)"><path d="M22.5 0 C75.1 5.79, 135.93 5.51, 177.5 0 C195.51 1.9, 199.61 9.4, 200 22.5 C200.09 33.92, 203.28 47.1, 200 67.5 C203.38 80.84, 189.37 91.65, 177.5 90 C144.46 91.69, 106.2 88.9, 22.5 90 C9.84 92.94, 0.98 81.68, 0 67.5 C2.14 55.65, -3.26 49.61, 0 22.5 C3.1 4, 9.53 1.61, 22.5 0" stroke="none" stroke-width="0" fill="#d0bfff"></path><path d="M22.5 0 C65.54 0.19, 111.11 -1.32, 177.5 0 M22.5 0 C73.56 1.58, 124.42 1.13, 177.5 0 M177.5 0 C193.23 -1.27, 198.18 8.44, 200 22.5 M177.5 0 C190.69 -2.13, 198.04 7.13, 200 22.5 M200 22.5 C200.37 34.9, 201.16 50.77, 200 67.5 M200 22.5 C199.84 39.86, 199.44 57.88, 200 67.5 M200 67.5 C199.62 80.64, 194.25 90.42, 177.5 90 M200 67.5 C199.97 82.29, 190.58 88.12, 177.5 90 M177.5 90 C141.81 91.66, 104.56 90.31, 22.5 90 M177.5 90 C130.59 89.32, 83.86 90.94, 22.5 90 M22.5 90 C7.93 91.71, 0.02 82.94, 0 67.5 M22.5 90 C8.32 88.42, 2.1 81.43, 0 67.5 M0 67.5 C1.49 52.17, 0.06 36.71, 0 22.5 M0 67.5 C-0.22 58.64, -0.21 48.76, 0 22.5 M0 22.5 C1.76 6.73, 8.31 1.52, 22.5 0 M0 22.5 C2 9.64, 6.47 -0.2, 22.5 0" stroke="#1e1e1e" stroke-width="2" fill="none"></path></g><g transform="translate(258 814.76) rotate(0 92 30)"><text x="92" y="0" font-family="Virgil, Segoe UI Emoji" font-size="16px" fill="#1e1e1e" text-anchor="middle" style="white-space: pre;" direction="ltr" dominant-baseline="text-before-edge">Dev labels of the</text><text x="92" y="20" font-family="Virgil, Segoe UI Emoji" font-size="16px" fill="#1e1e1e" text-anchor="middle" style="white-space: pre;" direction="ltr" dominant-baseline="text-before-edge">sample videos</text><text x="92" y="40" font-family="Virgil, Segoe UI Emoji" font-size="16px" fill="#1e1e1e" text-anchor="middle" style="white-space: pre;" direction="ltr" dominant-baseline="text-before-edge">(58+ events)</text></g><g stroke-linecap="round" transform="translate(490 800) rotate(0 110 45)"><path d="M22.5 0 C77.19 -2.72, 129.28 -2.83, 197.5 0 C213.93 3.21, 216.82 6.66, 220 22.5 C218.52 32.35, 221.51 46.37, 220 67.5 C221.51 80.34, 211.76 89.08, 197.5 90 C130.31 95.74, 58.76 90.55, 22.5 90 C9.67 92.88, 2.02 80.82, 0 67.5 C-3.05 50.81, 2.15 37.24, 0 22.5 C1.13 7.72, 5.15 -2.61, 22.5 0" stroke="none" stroke-width="0" fill="#d0bfff"></path><path d="M22.5 0 C70.17 -1, 120.28 -1.63, 197.5 0 M22.5 0 C84.9 2.47, 147.2 2.72, 197.5 0 M197.5 0 C214 -0.63, 220.29 8.51, 220 22.5 M197.5 0 C212.06 -0.34, 220.35 7.48, 220 22.5 M220 22.5 C218.61 39.8, 219.53 57.33, 220 67.5 M220 22.5 C219.17 34.85, 219.68 46.03, 220 67.5 M220 67.5 C221.46 83.85, 213.37 89.38, 197.5 90 M220 67.5 C220.87 80.64, 214.09 89.61, 197.5 90 M197.5 90 C140.14 88.54, 86.85 92.26, 22.5 90 M197.5 90 C148.99 89.93, 100.71 90.31, 22.5 90 M22.5 90 C7.06 90.01, 0.12 83.26, 0 67.5 M22.5 90 C6.45 90.58, 1.15 80.69, 0 67.5 M0 67.5 C-1.11 58.71, -1.28 46.1, 0 22.5 M0 67.5 C0.89 54.45, -0.01 41.68, 0 22.5 M0 22.5 C-1.4 9.1, 6.18 0.27, 22.5 0 M0 22.5 C-1.51 5.67, 7.88 -2.05, 22.5 0" stroke="#1e1e1e" stroke-width="2" fill="none"></path></g><g transform="translate(498 814.76) rotate(0 102 30)"><text x="102" y="0" font-family="Virgil, Segoe UI Emoji" font-size="16px" fill="#1e1e1e" text-anchor="middle" style="white-space: pre;" direction="ltr" dominant-baseline="text-before-edge">Official evaluate.py</text><text x="102" y="20" font-family="Virgil, Segoe UI Emoji" font-size="16px" fill="#1e1e1e" text-anchor="middle" style="white-space: pre;" direction="ltr" dominant-baseline="text-before-edge">per class, tIoU</text><text x="102" y="40" font-family="Virgil, Segoe UI Emoji" font-size="16px" fill="#1e1e1e" text-anchor="middle" style="white-space: pre;" direction="ltr" dominant-baseline="text-before-edge">0.3 / 0.5 / 0.7</text></g><g stroke-linecap="round" transform="translate(750 800) rotate(0 120 45)"><path d="M22.5 0 C76.58 0.72, 131.07 2.87, 217.5 0 C234.04 -2.93, 243.18 8.1, 240 22.5 C243.04 37.82, 240.55 51.82, 240 67.5 C237.5 83.6, 233.37 87.09, 217.5 90 C175.43 91.26, 140.28 87.21, 22.5 90 C4.02 90.84, 1.75 85.86, 0 67.5 C2.05 52.48, 0.53 33.1, 0 22.5 C-3.44 5.43, 8.81 -1.14, 22.5 0" stroke="none" stroke-width="0" fill="#d0bfff"></path><path d="M22.5 0 C81.7 -1.52, 137.08 -1.93, 217.5 0 M22.5 0 C78.14 -2.68, 134.71 -0.9, 217.5 0 M217.5 0 C234.24 -1.34, 240.71 6.08, 240 22.5 M217.5 0 C233.92 -2.12, 241.76 6.92, 240 22.5 M240 22.5 C240.81 33.58, 238.87 41.17, 240 67.5 M240 22.5 C239.74 37.51, 239.39 51.15, 240 67.5 M240 67.5 C238.14 81.84, 232.06 91.65, 217.5 90 M240 67.5 C238.16 80.45, 232.77 88.17, 217.5 90 M217.5 90 C148.36 88.12, 76.18 90.74, 22.5 90 M217.5 90 C157.8 90.42, 98.81 91.22, 22.5 90 M22.5 90 C7.67 91.98, -0.85 81.01, 0 67.5 M22.5 90 C7.05 89.14, -0.08 80.61, 0 67.5 M0 67.5 C-1.39 57.11, 2.07 41.72, 0 22.5 M0 67.5 C0.15 56.72, 0.74 45.45, 0 22.5 M0 22.5 C-1.52 9.12, 8.93 0.75, 22.5 0 M0 22.5 C-0.04 8.13, 8.27 -0.54, 22.5 0" stroke="#1e1e1e" stroke-width="2" fill="none"></path></g><g transform="translate(758 814.76) rotate(0 112 30)"><text x="112" y="0" font-family="Virgil, Segoe UI Emoji" font-size="16px" fill="#1e1e1e" text-anchor="middle" style="white-space: pre;" direction="ltr" dominant-baseline="text-before-edge">Settings chosen with</text><text x="112" y="20" font-family="Virgil, Segoe UI Emoji" font-size="16px" fill="#1e1e1e" text-anchor="middle" style="white-space: pre;" direction="ltr" dominant-baseline="text-before-edge">leave-one-video-out;</text><text x="112" y="40" font-family="Virgil, Segoe UI Emoji" font-size="16px" fill="#1e1e1e" text-anchor="middle" style="white-space: pre;" direction="ltr" dominant-baseline="text-before-edge">sensitivity checks</text></g><g stroke-linecap="round" transform="translate(1030 800) rotate(0 120 45)"><path d="M22.5 0 C90.16 2.12, 153.9 -2.82, 217.5 0 C229.88 2.52, 241.09 6.4, 240 22.5 C240.85 30.53, 240.12 39.93, 240 67.5 C240.93 80.14, 234.29 90.56, 217.5 90 C148.28 96.65, 79.63 97.04, 22.5 90 C8.48 87.29, -2.76 82.86, 0 67.5 C0.94 52.68, -2.1 47.09, 0 22.5 C-1.32 10.14, 9.77 0.38, 22.5 0" stroke="none" stroke-width="0" fill="#b2f2bb"></path><path d="M22.5 0 C78.17 0.8, 132.77 1, 217.5 0 M22.5 0 C77.22 -0.81, 131.21 -0.74, 217.5 0 M217.5 0 C233.61 -1.38, 240.96 6.01, 240 22.5 M217.5 0 C232.85 2.28, 240.95 8.15, 240 22.5 M240 22.5 C239.19 33.97, 239.69 41.38, 240 67.5 M240 22.5 C239.04 33.16, 240.55 44.3, 240 67.5 M240 67.5 C240.84 82.07, 233.94 88.67, 217.5 90 M240 67.5 C239.8 84.38, 230.32 91.64, 217.5 90 M217.5 90 C171.26 88.43, 120.14 91.57, 22.5 90 M217.5 90 C157.6 90.52, 98.62 90.96, 22.5 90 M22.5 90 C7.36 89.31, 1.23 83.46, 0 67.5 M22.5 90 C6.49 88.76, 0.99 81.15, 0 67.5 M0 67.5 C-1.76 53.28, 0.48 37.75, 0 22.5 M0 67.5 C-0.61 52.25, 0.32 39.57, 0 22.5 M0 22.5 C0.15 6.64, 8.27 -0.91, 22.5 0 M0 22.5 C1.61 7.12, 6.68 -1.75, 22.5 0" stroke="#1e1e1e" stroke-width="2" fill="none"></path></g><g transform="translate(1038 814.76) rotate(0 112 30)"><text x="112" y="0" font-family="Virgil, Segoe UI Emoji" font-size="16px" fill="#1e1e1e" text-anchor="middle" style="white-space: pre;" direction="ltr" dominant-baseline="text-before-edge">Score A on our labels</text><text x="112" y="20" font-family="Virgil, Segoe UI Emoji" font-size="16px" fill="#1e1e1e" text-anchor="middle" style="white-space: pre;" direction="ltr" dominant-baseline="text-before-edge">first rules 0.14</text><text x="112" y="40" font-family="Virgil, Segoe UI Emoji" font-size="16px" fill="#1e1e1e" text-anchor="middle" style="white-space: pre;" direction="ltr" dominant-baseline="text-before-edge">-&gt; event layer v2 0.49</text></g><g stroke-linecap="round"><g transform="translate(210 845) rotate(0 20 0)"><path d="M-0.07 0 C6.65 0.02, 33.46 0.08, 40.09 0.14 M-0.77 -0.48 C5.9 -0.64, 32.77 -0.74, 39.7 -0.76" stroke="#495057" stroke-width="2" fill="none"></path></g><g transform="translate(210 845) rotate(0 20 0)"><path d="M20.93 6.15 C25.82 4.52, 30.97 1.95, 39.7 -0.76 M20.93 6.15 C27.77 3.48, 33.82 1.74, 39.7 -0.76" stroke="#495057" stroke-width="2" fill="none"></path></g><g transform="translate(210 845) rotate(0 20 0)"><path d="M20.88 -7.53 C25.78 -5.6, 30.94 -4.59, 39.7 -0.76 M20.88 -7.53 C27.74 -5.33, 33.8 -2.2, 39.7 -0.76" stroke="#495057" stroke-width="2" fill="none"></path></g></g><mask></mask><g stroke-linecap="round"><g transform="translate(450 845) rotate(0 20 0)"><path d="M0.55 0.13 C7.17 0.15, 33.52 0.32, 40.14 0.33 M0.16 -0.28 C6.7 -0.43, 33.13 -0.38, 39.79 -0.46" stroke="#495057" stroke-width="2" fill="none"></path></g><g transform="translate(450 845) rotate(0 20 0)"><path d="M21.02 6.47 C28.18 4.08, 35.48 1.78, 39.79 -0.46 M21.02 6.47 C27.81 3.91, 33.82 1.36, 39.79 -0.46" stroke="#495057" stroke-width="2" fill="none"></path></g><g transform="translate(450 845) rotate(0 20 0)"><path d="M20.96 -7.21 C28.16 -4.55, 35.49 -1.79, 39.79 -0.46 M20.96 -7.21 C27.73 -5.18, 33.77 -3.14, 39.79 -0.46" stroke="#495057" stroke-width="2" fill="none"></path></g></g><mask></mask><g stroke-linecap="round"><g transform="translate(710 845) rotate(0 20 0)"><path d="M0.18 0.47 C6.93 0.54, 33.83 0.18, 40.38 0.06 M-0.39 0.24 C6.33 0.43, 33.32 0.79, 40.14 0.79" stroke="#495057" stroke-width="2" fill="none"></path></g><g transform="translate(710 845) rotate(0 20 0)"><path d="M21.29 7.48 C27.41 6.27, 31.9 2.75, 40.14 0.79 M21.29 7.48 C25.69 6.07, 31.39 4.07, 40.14 0.79" stroke="#495057" stroke-width="2" fill="none"></path></g><g transform="translate(710 845) rotate(0 20 0)"><path d="M21.4 -6.2 C27.45 -3.6, 31.91 -3.31, 40.14 0.79 M21.4 -6.2 C25.7 -4.12, 31.37 -2.63, 40.14 0.79" stroke="#495057" stroke-width="2" fill="none"></path></g></g><mask></mask><g stroke-linecap="round"><g transform="translate(990 845) rotate(0 20 0)"><path d="M0.36 0.07 C7.07 0.01, 33.92 -0.36, 40.53 -0.37 M-0.12 -0.37 C6.54 -0.37, 33.75 -0.02, 40.37 0.14" stroke="#495057" stroke-width="2" fill="none"></path></g><g transform="translate(990 845) rotate(0 20 0)"><path d="M21.46 6.65 C28.2 5.27, 34.01 1.99, 40.37 0.14 M21.46 6.65 C27.51 4.88, 33.13 2.84, 40.37 0.14" stroke="#495057" stroke-width="2" fill="none"></path></g><g transform="translate(990 845) rotate(0 20 0)"><path d="M21.7 -7.03 C28.36 -3.62, 34.09 -2.12, 40.37 0.14 M21.7 -7.03 C27.64 -4.73, 33.18 -2.69, 40.37 0.14" stroke="#495057" stroke-width="2" fill="none"></path></g></g><mask></mask></svg>